<svg width="199" height="56" viewBox="0 0 199 56" fill="none"
    xmlns="http://www.w3.org/2000/svg">
    <path
        d="M69.0932 52.8781C79.0377 53.6618 86.9208 53.4296 99.0629 53.7645C110.716 54.0196 112.917 54.3288 125.275 54.1073L125.288 54.1072C125.807 54.1055 126.357 54.0994 126.94 54.0878C140.822 53.7818 154.636 51.643 160.66 50.2698C166.662 48.8372 167.451 49.2017 175.819 46.5735C184.046 43.6648 189.281 41.7787 194.841 36.6426C196.011 35.4234 197.797 33.2855 197.98 30.2526C198.516 18.403 179.914 13.5565 174.293 12.1452C165.952 10.1252 156.229 8.66724 150.346 8.18616C148.519 8.03022 147.082 7.92803 145.96 7.85164C145.494 7.81997 145.287 7.78793 145.287 7.76307C145.287 7.76306 145.287 7.76304 145.287 7.76303C145.289 7.7325 145.613 7.71314 146.218 7.73609C149.167 7.84825 153.542 8.10076 158.7 8.65216C168.278 9.9273 169.42 9.89108 181.914 13.804C190.205 17.0258 198.615 20.5501 198.847 30.2949C198.71 34.0455 195.974 37.4261 192.423 39.941C179.04 47.7422 175.36 48.9215 154.026 52.7902C139.77 54.7795 133.897 55.2369 125.288 55.5505L125.303 55.5504C120.987 55.7212 115.851 55.8733 108.564 55.8618C86.936 55.9281 59.6802 53.9033 46.7497 52.1954C34.3783 49.7163 14.4567 51.044 0.994535 36.3384C-1.49862 31.1966 2.57351 26.0372 6.27487 22.7025C17.8845 12.3825 34.5766 7.74916 49.4717 4.93773C69.5761 1.03987 98.4968 0.360374 111.786 0.69751C125.073 0.993514 128.347 1.16039 141.113 1.83686C148.432 2.25404 158.581 3.15218 167.068 4.34072C171.29 4.94319 170.384 4.92947 166.022 4.45791C159.688 3.79334 154.586 3.28895 151.279 3.14601C144.719 2.88737 142.01 2.78684 133.778 2.19087C125.562 1.63098 121.648 1.90814 116.868 1.77035C112.056 1.76872 112.134 1.02215 87.753 2.074C63.3892 3.46836 50.2416 6.19079 41.2966 8.3383C33.5849 10.2708 17.579 14.4693 7.29461 23.8256C5.81292 25.1831 4.70524 26.3707 3.68737 27.8233C2.70522 29.2389 1.71532 31.1694 1.79002 33.183C1.81388 35.2178 3.14514 37.2873 5.00206 38.8326C8.87959 42.0362 14.1998 43.922 19.4635 45.4772C30.0666 48.4893 40.7759 49.8332 46.8818 50.5553C59.1232 51.8456 59.1657 52.0072 69.0932 52.8781Z"
        fill="none"
        stroke="#FF0000"
        stroke-width="2"
    />
</svg>
