<svg width="199" height="58" viewBox="0 0 199 58" fill="none" xmlns="http://www.w3.org/2000/svg">
<path d="M122.333 56.4581C123.344 56.4538 124.324 56.4433 125.276 56.4273L125.288 56.4272C136.8 56.3018 146.573 54.8458 160.788 52.1583C175.819 48.4202 179.458 49.6465 193.891 39.4595C195.896 37.5764 197.503 35.1289 197.606 32.4956C196.57 25.6602 188.441 22.2253 183.371 19.4229C177.885 16.7197 172.991 14.966 169.83 13.9263C162.195 11.5575 161.423 10.8286 150.362 8.24186C139.231 5.82473 132.383 4.69812 122.489 3.34929C112.62 1.61787 81.8788 0.553005 70.746 1.93978C59.6261 2.80427 46.9938 4.40931 39.475 5.90396C37.1356 6.35362 35.295 6.73186 33.8833 7.02379C33.2853 7.14772 33.0047 7.18775 32.999 7.16358C32.999 7.16356 32.999 7.16355 32.999 7.16353C32.9923 7.13368 33.4117 7.00433 34.1766 6.82734C37.8876 5.96799 43.4505 4.76809 50.084 3.64576C62.4852 1.74097 63.8566 1.64983 80.7866 0.79571C97.683 0.339146 107.968 0.447352 127.727 3.10508C147.316 6.51753 152.334 5.75134 178.752 15.9467C189.636 21.1079 197.644 24.6554 198.898 32.5586C197.274 42.3955 188.009 46.3768 173.26 51.1492C158.427 55.4356 140.864 57.8421 125.288 57.9033L125.305 57.9032C112.497 58.0841 101.031 57.8451 93.3763 57.6483C76.5093 57.13 53.6833 56.3726 30.096 51.8911C23.0726 50.4328 15.5535 48.8042 8.30206 45.1342C4.8763 43.2566 0.819326 40.6907 0.245301 35.9431C-0.02749 31.1964 3.22825 27.7831 6.2471 24.933C14.8048 17.3317 25.5876 13.2228 35.8947 10.185C61.4491 2.45212 99.2481 1.70095 116.422 2.96389C133.659 4.16763 137.825 4.64188 154.238 7.42619C163.619 9.12159 176.464 12.365 186.725 16.7019C191.824 18.9196 190.679 18.4967 185.412 16.4413C177.699 13.5392 171.23 11.7514 167.079 10.8255C158.79 9.07748 155.279 8.42142 144.754 6.60537C134.202 4.91117 129.156 4.89427 122.954 4.37224C116.757 4.1866 116.857 2.71131 85.2311 3.88708C53.6424 5.84413 36.773 11.0326 25.7578 15.3614C20.9979 17.3278 13.6879 20.4758 7.33169 26.1276C3.26936 29.5485 -0.690936 35.7087 3.84174 40.0337C7.75621 44.0542 13.6706 46.0105 18.7965 47.5856C37.4651 53.48 77.3569 55.8142 93.3312 56.0025C109.355 56.2454 109.342 56.4363 122.333 56.4581Z" fill="#FF0000"/>
</svg>
