<svg width="199" height="60" viewBox="0 0 199 57" fill="none" xmlns="http://www.w3.org/2000/svg">
<path d="M116.033 54.8502C119.255 54.8683 122.34 54.8174 125.276 54.7243L125.288 54.7242C133.974 54.5519 142.359 53.5404 153.604 51.8088C168.557 48.9621 171.322 49.5135 187.189 42.3584C192.06 39.7597 197.316 36.0157 197.621 30.8278C197.442 25.6952 191.986 22.5629 188.408 20.3881C184.533 18.2046 181.139 16.8761 178.625 15.9652C171.286 13.517 170.551 12.7877 159.764 10.3737C148.832 8.16283 142.213 7.27833 132.545 6.24391C122.864 4.83337 92.981 4.8368 82.1654 6.45155C71.3796 7.59306 59.1167 9.35525 51.8025 10.8449C49.5344 11.295 47.7409 11.6672 46.3629 11.9528C45.7791 12.0741 45.5047 12.1125 45.499 12.0884C45.499 12.0883 45.499 12.0883 45.499 12.0883C45.4922 12.0584 45.9021 11.9315 46.6484 11.7579C50.2655 10.9158 55.668 9.71758 62.1007 8.5254C74.1369 6.4588 75.4491 6.35327 91.9055 5.04282C108.309 4.10072 118.341 3.80628 137.647 5.83347C156.743 8.81278 161.881 7.22959 187.226 18.335C193.318 21.6861 198.774 25.4552 198.824 30.8865C197.891 38.1599 192.284 40.9866 187.346 43.8804C182.058 46.647 175.639 49.0742 165.787 51.4259C153.203 54.356 138.77 56.2388 125.288 56.2667L125.305 56.2666C110.283 56.4823 96.5553 56.1046 87.8559 55.8072C71.4492 55.1499 49.2329 54.3146 26.3262 49.4397C19.9595 47.9485 12.9376 46.2436 6.55408 42.4661C3.5127 40.595 -0.0136042 37.5377 0.229466 33.1599C0.56524 28.9831 3.41709 25.9189 6.24943 23.2672C15.2479 15.3397 26.7562 11.2568 37.5636 8.18718C62.4861 0.949084 99.217 -0.220109 115.952 1.00379C132.691 2.15974 136.851 2.59659 152.703 5.6155C161.815 7.49819 174.298 11.1181 183.583 16.7496C188.144 19.6809 187.14 19.0516 182.348 16.3246C175.346 12.5674 168.992 10.4701 165.083 9.38487C157.12 7.32695 153.705 6.59738 143.508 4.67214C133.279 2.89818 128.311 2.90032 122.31 2.39069C116.279 2.22228 116.37 0.744274 85.6012 2.08255C54.8406 4.19813 38.5097 9.11971 27.6258 13.1039C22.465 15.1193 14.303 18.3036 7.3259 24.4529C3.70157 27.6279 -0.18196 32.8215 2.86913 37.1282C5.79832 41.2495 10.9802 43.2242 15.5026 44.8585C33.3898 51.3656 72.3071 53.8265 87.8269 54.1612C103.404 54.5225 103.433 54.7098 116.033 54.8502Z" fill="#FF0000"/>
</svg>
